<?xml version="1.0" encoding="iso-8859-1"?>
<!-- Generator: Adobe Illustrator 19.0.0, SVG Export Plug-In . SVG Version: 6.00 Build 0)  -->
<svg version="1.1" id="Capa_1" xmlns="http://www.w3.org/2000/svg" xmlns:xlink="http://www.w3.org/1999/xlink" x="0px" y="0px"
	 viewBox="0 0 512 512" style="enable-background:new 0 0 512 512;" xml:space="preserve">
<circle style="fill:#455A64;" cx="256" cy="256" r="256"/>
<circle style="fill:#ECEFF1;" cx="256" cy="368" r="32"/>
<path d="M256,512C114.615,512,0,397.385,0,256S114.615,0,256,0s256,114.615,256,256C511.841,397.319,397.319,511.841,256,512z
	 M256,32C132.288,32,32,132.288,32,256s100.288,224,224,224s224-100.288,224-224C479.859,132.347,379.653,32.141,256,32z"/>
<path d="M256,416c-26.51,0-48-21.49-48-48s21.49-48,48-48s48,21.49,48,48S282.51,416,256,416z M256,352c-8.837,0-16,7.163-16,16
	s7.163,16,16,16c8.837,0,16-7.163,16-16S264.837,352,256,352z"/>
<path d="M234.56,360.32c-4.505,0.006-8.804-1.888-11.84-5.216L84.16,202.784c-5.956-6.539-5.483-16.668,1.056-22.624
	c6.539-5.956,16.668-5.483,22.624,1.056l138.56,152.32c5.956,6.528,5.492,16.648-1.036,22.604
	C242.411,358.834,238.557,360.325,234.56,360.32z"/>
<path d="M240,256c-8.837,0-16-7.163-16-16V112c0-8.837,7.163-16,16-16h64c8.837,0,16,7.163,16,16s-7.163,16-16,16h-48v112
	C256,248.837,248.837,256,240,256z"/>
<path d="M304,192h-64c-8.837,0-16-7.163-16-16s7.163-16,16-16h64c8.837,0,16,7.163,16,16S312.837,192,304,192z"/>
<path d="M304,256h-64c-8.837,0-16-7.163-16-16s7.163-16,16-16h64c8.837,0,16,7.163,16,16S312.837,256,304,256z"/>
<g>
</g>
<g>
</g>
<g>
</g>
<g>
</g>
<g>
</g>
<g>
</g>
<g>
</g>
<g>
</g>
<g>
</g>
<g>
</g>
<g>
</g>
<g>
</g>
<g>
</g>
<g>
</g>
<g>
</g>
</svg>
