<svg id="bold" fill='#ff0000' enable-background="new 0 0 24 24" height="512" viewBox="0 0 24 24" width="512" xmlns="http://www.w3.org/2000/svg"><path d="m13.27 5.209c-.475-.458-1.27-.119-1.27.541v3.25h-5.75c-.689 0-1.25.561-1.25 1.25v3.5c0 .689.561 1.25 1.25 1.25h5.75v3.25c0 .662.796.996 1.27.541l6.5-6.25c.147-.142.23-.337.23-.541s-.083-.399-.23-.541z"/><path d="m12 24c-6.617 0-12-5.383-12-12s5.383-12 12-12 12 5.383 12 12-5.383 12-12 12zm0-22c-5.514 0-10 4.486-10 10s4.486 10 10 10 10-4.486 10-10-4.486-10-10-10z"/></svg>